<svg width="1090" height="568" viewBox="0 0 1090 568" fill="none" xmlns="http://www.w3.org/2000/svg">
<g filter="url(#filter0_ii_0_53)">
<path d="M0 161.5C0 148.245 10.7452 137.5 24 137.5H256C269.255 137.5 280 126.755 280 113.5V24C280 10.7452 290.745 0 304 0H506C519.255 0 530 10.7452 530 24V113.5C530 126.755 540.745 137.5 554 137.5H1066C1079.25 137.5 1090 148.245 1090 161.5V544C1090 557.255 1079.25 568 1066 568H24C10.7452 568 0 557.255 0 544V161.5Z" fill="#D5EDB0"/>
</g>
<defs>
<filter id="filter0_ii_0_53" x="-4" y="-4" width="1098" height="576" filterUnits="userSpaceOnUse" color-interpolation-filters="sRGB">
<feFlood flood-opacity="0" result="BackgroundImageFix"/>
<feBlend mode="normal" in="SourceGraphic" in2="BackgroundImageFix" result="shape"/>
<feColorMatrix in="SourceAlpha" type="matrix" values="0 0 0 0 0 0 0 0 0 0 0 0 0 0 0 0 0 0 127 0" result="hardAlpha"/>
<feOffset dx="4" dy="4"/>
<feGaussianBlur stdDeviation="25"/>
<feComposite in2="hardAlpha" operator="arithmetic" k2="-1" k3="1"/>
<feColorMatrix type="matrix" values="0 0 0 0 0 0 0 0 0 0 0 0 0 0 0 0 0 0 0.25 0"/>
<feBlend mode="normal" in2="shape" result="effect1_innerShadow_0_53"/>
<feColorMatrix in="SourceAlpha" type="matrix" values="0 0 0 0 0 0 0 0 0 0 0 0 0 0 0 0 0 0 127 0" result="hardAlpha"/>
<feOffset dx="-4" dy="-4"/>
<feGaussianBlur stdDeviation="25"/>
<feComposite in2="hardAlpha" operator="arithmetic" k2="-1" k3="1"/>
<feColorMatrix type="matrix" values="0 0 0 0 0 0 0 0 0 0 0 0 0 0 0 0 0 0 0.25 0"/>
<feBlend mode="normal" in2="effect1_innerShadow_0_53" result="effect2_innerShadow_0_53"/>
</filter>
</defs>
</svg>
