<svg width="1090" height="568" viewBox="0 0 1090 568" fill="none" xmlns="http://www.w3.org/2000/svg">
<g filter="url(#filter0_ii_0_61)">
<path d="M0 153.5C0 144.663 7.16344 137.5 16 137.5H158.5H297.5H544C552.837 137.5 560 130.337 560 121.5V16C560 7.16345 567.163 0 576 0H794C802.837 0 810 7.16344 810 16V121.5C810 130.337 817.163 137.5 826 137.5H1074C1082.84 137.5 1090 144.663 1090 153.5V552C1090 560.837 1082.84 568 1074 568H16C7.16344 568 0 560.837 0 552V153.5Z" fill="#DAECE3"/>
</g>
<defs>
<filter id="filter0_ii_0_61" x="-4" y="-4" width="1098" height="576" filterUnits="userSpaceOnUse" color-interpolation-filters="sRGB">
<feFlood flood-opacity="0" result="BackgroundImageFix"/>
<feBlend mode="normal" in="SourceGraphic" in2="BackgroundImageFix" result="shape"/>
<feColorMatrix in="SourceAlpha" type="matrix" values="0 0 0 0 0 0 0 0 0 0 0 0 0 0 0 0 0 0 127 0" result="hardAlpha"/>
<feOffset dx="4" dy="4"/>
<feGaussianBlur stdDeviation="25"/>
<feComposite in2="hardAlpha" operator="arithmetic" k2="-1" k3="1"/>
<feColorMatrix type="matrix" values="0 0 0 0 0 0 0 0 0 0 0 0 0 0 0 0 0 0 0.25 0"/>
<feBlend mode="normal" in2="shape" result="effect1_innerShadow_0_61"/>
<feColorMatrix in="SourceAlpha" type="matrix" values="0 0 0 0 0 0 0 0 0 0 0 0 0 0 0 0 0 0 127 0" result="hardAlpha"/>
<feOffset dx="-4" dy="-4"/>
<feGaussianBlur stdDeviation="25"/>
<feComposite in2="hardAlpha" operator="arithmetic" k2="-1" k3="1"/>
<feColorMatrix type="matrix" values="0 0 0 0 0 0 0 0 0 0 0 0 0 0 0 0 0 0 0.25 0"/>
<feBlend mode="normal" in2="effect1_innerShadow_0_61" result="effect2_innerShadow_0_61"/>
</filter>
</defs>
</svg>
