<svg width="50" height="50" viewBox="0 0 50 50" fill="none" xmlns="http://www.w3.org/2000/svg">
<rect width="50" height="50" rx="25" fill="white"/>
<path d="M35.4139 26.586C35.7889 26.9611 35.9995 27.4697 35.9995 28C35.9995 28.5303 35.7889 29.0389 35.4139 29.414L26.4139 38.414C26.0389 38.7889 25.5303 38.9996 24.9999 38.9996C24.4696 38.9996 23.961 38.7889 23.5859 38.414L14.5859 29.414C14.2216 29.0368 14.02 28.5316 14.0246 28.0072C14.0291 27.4828 14.2395 26.9812 14.6103 26.6104C14.9811 26.2395 15.4827 26.0292 16.0071 26.0247C16.5315 26.0201 17.0367 26.2217 17.4139 26.586L22.9999 32V13C22.9999 12.4696 23.2107 11.9609 23.5857 11.5858C23.9608 11.2107 24.4695 11 24.9999 11C25.5304 11 26.0391 11.2107 26.4142 11.5858C26.7892 11.9609 26.9999 12.4696 26.9999 13V32L32.5859 26.586C32.961 26.2111 33.4696 26.0004 33.9999 26.0004C34.5303 26.0004 35.0389 26.2111 35.4139 26.586Z" fill="#052B21"/>
</svg>
