<svg width="24" height="24" viewBox="0 0 24 24" fill="none" xmlns="http://www.w3.org/2000/svg">
<path fill-rule="evenodd" clip-rule="evenodd" d="M12 4C10.6739 4 9.40215 4.52678 8.46447 5.46447C7.52678 6.40215 7 7.67392 7 9V15C7 15.2652 6.89464 15.5196 6.70711 15.7071C6.51957 15.8946 6.26522 16 6 16C5.73478 16 5.48043 15.8946 5.29289 15.7071C5.10536 15.5196 5 15.2652 5 15V9C5 8.08075 5.18106 7.1705 5.53284 6.32122C5.88463 5.47194 6.40024 4.70026 7.05025 4.05025C7.70026 3.40024 8.47194 2.88463 9.32122 2.53284C10.1705 2.18106 11.0807 2 12 2C12.9193 2 13.8295 2.18106 14.6788 2.53284C15.5281 2.88463 16.2997 3.40024 16.9497 4.05025C17.5998 4.70026 18.1154 5.47194 18.4672 6.32122C18.8189 7.1705 19 8.08075 19 9V17C19 18.3261 18.4732 19.5979 17.5355 20.5355C16.5979 21.4732 15.3261 22 14 22C12.6739 22 11.4021 21.4732 10.4645 20.5355C9.52678 19.5979 9 18.3261 9 17V9C9 8.20435 9.31607 7.44129 9.87868 6.87868C10.4413 6.31607 11.2044 6 12 6C12.7956 6 13.5587 6.31607 14.1213 6.87868C14.6839 7.44129 15 8.20435 15 9V17C15 17.2652 14.8946 17.5196 14.7071 17.7071C14.5196 17.8946 14.2652 18 14 18C13.7348 18 13.4804 17.8946 13.2929 17.7071C13.1054 17.5196 13 17.2652 13 17V9C13 8.73478 12.8946 8.48043 12.7071 8.29289C12.5196 8.10536 12.2652 8 12 8C11.7348 8 11.4804 8.10536 11.2929 8.29289C11.1054 8.48043 11 8.73478 11 9V17C11 17.7956 11.3161 18.5587 11.8787 19.1213C12.4413 19.6839 13.2044 20 14 20C14.7956 20 15.5587 19.6839 16.1213 19.1213C16.6839 18.5587 17 17.7956 17 17V9C17 7.67392 16.4732 6.40215 15.5355 5.46447C14.5979 4.52678 13.3261 4 12 4Z" fill="#E7F2EF"/>
</svg>
