<svg width="1440" height="763" viewBox="0 0 1440 763" fill="none" xmlns="http://www.w3.org/2000/svg">
<g filter="url(#filter0_ii_3904_584)">
<path d="M-9.31899 0.387641C-9.31899 0.387641 193.151 198.779 343.146 264.158C493.141 329.536 610.081 267.322 758.853 335.213C906.961 402.801 936.494 533.843 1084.59 601.454C1242.37 673.485 1527.03 670.038 1527.03 670.038L1486.92 762.047C1486.92 762.047 1214.95 749.512 1060.99 681.715C909.532 615.017 887.45 479.249 736.362 411.708C587.408 345.121 457.484 407.406 307.489 342.027C157.494 276.648 -49.4232 92.3968 -49.4232 92.3968L-9.31899 0.387641Z" fill="url(#paint0_linear_3904_584)"/>
</g>
<defs>
<filter id="filter0_ii_3904_584" x="-53.4238" y="-3.6123" width="1584.45" height="769.659" filterUnits="userSpaceOnUse" color-interpolation-filters="sRGB">
<feFlood flood-opacity="0" result="BackgroundImageFix"/>
<feBlend mode="normal" in="SourceGraphic" in2="BackgroundImageFix" result="shape"/>
<feColorMatrix in="SourceAlpha" type="matrix" values="0 0 0 0 0 0 0 0 0 0 0 0 0 0 0 0 0 0 127 0" result="hardAlpha"/>
<feOffset dx="4" dy="4"/>
<feGaussianBlur stdDeviation="20"/>
<feComposite in2="hardAlpha" operator="arithmetic" k2="-1" k3="1"/>
<feColorMatrix type="matrix" values="0 0 0 0 0 0 0 0 0 0 0 0 0 0 0 0 0 0 0.25 0"/>
<feBlend mode="normal" in2="shape" result="effect1_innerShadow_3904_584"/>
<feColorMatrix in="SourceAlpha" type="matrix" values="0 0 0 0 0 0 0 0 0 0 0 0 0 0 0 0 0 0 127 0" result="hardAlpha"/>
<feOffset dx="-4" dy="-4"/>
<feGaussianBlur stdDeviation="20"/>
<feComposite in2="hardAlpha" operator="arithmetic" k2="-1" k3="1"/>
<feColorMatrix type="matrix" values="0 0 0 0 0 0 0 0 0 0 0 0 0 0 0 0 0 0 0.25 0"/>
<feBlend mode="normal" in2="effect1_innerShadow_3904_584" result="effect2_innerShadow_3904_584"/>
</filter>
<linearGradient id="paint0_linear_3904_584" x1="-48.6488" y1="90.62" x2="1487.7" y2="760.271" gradientUnits="userSpaceOnUse">
<stop stop-color="#B4D6CD"/>
<stop offset="0.326923" stop-color="#FFEBE2"/>
<stop offset="0.591346" stop-color="#D2F0F4"/>
<stop offset="0.817308" stop-color="#D2F0F4"/>
</linearGradient>
</defs>
</svg>
