<svg width="42" height="42" viewBox="0 0 42 42" fill="none" xmlns="http://www.w3.org/2000/svg">
<rect width="42" height="42" rx="21" fill="#052B21"/>
<path fill-rule="evenodd" clip-rule="evenodd" d="M13.5416 12.3091C13.4031 12.2508 13.2502 12.2356 13.1029 12.2653C12.9555 12.2949 12.8205 12.3682 12.7153 12.4756C12.6101 12.5829 12.5396 12.7194 12.5129 12.8673C12.4862 13.0152 12.5046 13.1677 12.5656 13.3051L15.6586 20.2501H23.2506C23.4495 20.2501 23.6403 20.3291 23.7809 20.4698C23.9216 20.6104 24.0006 20.8012 24.0006 21.0001C24.0006 21.199 23.9216 21.3898 23.7809 21.5304C23.6403 21.6711 23.4495 21.7501 23.2506 21.7501H15.6586L12.5656 28.6951C12.5046 28.8324 12.4862 28.985 12.5129 29.1329C12.5396 29.2808 12.6101 29.4173 12.7153 29.5246C12.8205 29.632 12.9555 29.7052 13.1029 29.7349C13.2502 29.7646 13.4031 29.7493 13.5416 29.6911L32.5416 21.6911C32.6775 21.6338 32.7935 21.5376 32.875 21.4147C32.9565 21.2918 33 21.1476 33 21.0001C33 20.8526 32.9565 20.7084 32.875 20.5855C32.7935 20.4626 32.6775 20.3664 32.5416 20.3091L13.5416 12.3091Z" fill="#B4D6CD"/>
</svg>
